#!OML:ASF X:\für Bonn\!DataBase\2005_08_10_Bjorn_Final\c3d\bjorn.ASF
:FULLY-SPECIFIED
:DEGREES
112
root -20.7122 19.3015 -1.40582 1252.38 241.725 -170.593
lowerback -6.59175 3.45261 -0.0450243
upperback 6.61283 5.03946 -4.95278
thorax 11.3013 2.63156 -4.52106
lowerneck -0.119394 -10.5108 6.19367
upperneck 7.80545 -14.6978 5.24403
head 2.47667 -7.04323 0.344368
rclavicle -5.4467e-014 1.82882e-014
rhumerus 37.1843 -0.889507 -30.3039
rradius 56.9304
rwrist -24.036
rhand 7.18238 -0.713096
rfingers 7.12502
rthumb 32.4493 -27.8279
lclavicle -5.4467e-014 1.82882e-014
lhumerus -33.3048 19.4654 71.4383
lradius 17.0006
lwrist -42.2809
lhand -12.6275 -6.73101
lfingers 7.12502
lthumb 13.4522 22.8146
rfemur -14.4461 -6.15379 11.7155
rtibia 31.3805
rfoot -11.8957 11.045
rtoes -4.58179
lfemur -1.44011 -4.81019 -17.461
ltibia 28.9154
lfoot -12.3527 -7.32381
ltoes -14.203
113
root -20.7363 19.3042 -1.40649 1252.31 241.748 -170.494
lowerback -6.54528 3.45 -0.0314625
upperback 6.61008 5.03344 -4.96449
thorax 11.2721 2.63027 -4.54471
lowerneck -0.0534067 -10.5069 6.28548
upperneck 7.73491 -14.6848 5.27044
head 2.4369 -7.03851 0.345912
rclavicle -5.76476e-014 2.78299e-014
rhumerus 36.9983 -0.879119 -30.3249
rradius 57.3811
rwrist -24.1145
rhand 7.05021 -0.583824
rfingers 7.12502
rthumb 32.3235 -27.7244
lclavicle -5.76476e-014 2.78299e-014
lhumerus -33.5535 20.3896 70.7903
lradius 16.5987
lwrist -43.4045
lhand -12.5998 -6.69237
lfingers 7.12502
lthumb 13.479 22.8515
rfemur -14.3741 -6.19857 11.703
rtibia 31.3335
rfoot -11.9252 11.106
rtoes -4.72349
lfemur -1.53053 -4.77785 -17.4953
ltibia 28.944
lfoot -12.4616 -7.2509
ltoes -14.4721
114
root -20.7587 19.3065 -1.40565 1252.27 241.828 -170.38
lowerback -6.53657 3.47427 0.010637
upperback 6.58402 5.06345 -5.00158
thorax 11.2486 2.64985 -4.60443
lowerneck 0.0668606 -10.5137 6.39152
upperneck 7.63481 -14.6818 5.32974
head 2.37972 -7.04037 0.359513
rclavicle 1.86858e-014 -3.81667e-014
rhumerus 36.7841 -0.850534 -30.3301
rradius 57.817
rwrist -24.2607
rhand 6.84591 -0.469
rfingers 7.12502
rthumb 32.129 -27.649
lclavicle 1.86858e-014 -3.81667e-014
lhumerus -33.7938 21.2726 70.1193
lradius 16.2113
lwrist -44.5224
lhand -12.5537 -6.60008
lfingers 7.12502
lthumb 13.5234 22.9408
rfemur -14.3564 -6.21513 11.6844
rtibia 31.2794
rfoot -11.9259 11.2199
rtoes -4.66932
lfemur -1.66436 -4.71246 -17.5341
ltibia 28.9745
lfoot -12.5834 -7.17995
ltoes -14.7987
115
root -20.7801 19.3094 -1.405 1252.21 241.874 -170.273
lowerback -6.51537 3.47675 0.0311859
upperback 6.5546 5.06505 -5.03071
thorax 11.2078 2.6534 -4.64868
lowerneck 0.2497 -10.5275 6.42715
upperneck 7.50115 -14.6806 5.42547
head 2.30901 -7.04696 0.399036
rclavicle 5.1684e-014 1.03368e-014
rhumerus 36.6021 -0.762503 -30.2943
rradius 58.1999
rwrist -24.3999
rhand 6.54841 -0.238723
rfingers 7.12502
rthumb 31.8457 -27.4755
lclavicle 5.1684e-014 1.03368e-014
lhumerus -34.074 22.3574 69.3389
lradius 15.8022
lwrist -45.9061
lhand -12.588 -6.52878
lfingers 7.12502
lthumb 13.4903 23.0143
rfemur -14.3255 -6.25637 11.6673
rtibia 31.2342
rfoot -11.95 11.3045
rtoes -4.78766
lfemur -1.78032 -4.68981 -17.5776
ltibia 28.9887
lfoot -12.7341 -7.1059
ltoes -15.3737
116
root -20.8012 19.3111 -1.40443 1252.15 241.935 -170.169
lowerback -6.51864 3.46873 0.0261145
upperback 6.55239 5.056 -5.04823
thorax 11.208 2.64936 -4.6665
lowerneck 0.332532 -10.5301 6.49311
upperneck 7.4228 -14.6729 5.45287
head 2.26604 -7.04649 0.405757
rclavicle -1.66979e-014 5.24792e-014
rhumerus 36.5008 -0.652349 -30.158
rradius 58.5023
rwrist -24.6586
rhand 6.17019 0.100003
rfingers 7.12502
rthumb 31.4855 -27.2078
lclavicle -1.66979e-014 5.24792e-014
lhumerus -34.324 23.3055 68.6666
lradius 15.4737
lwrist -47.014
lhand -12.58 -6.43112
lfingers 7.12502
lthumb 13.498 23.1114
rfemur -14.2819 -6.2547 11.6475
rtibia 31.1906
rfoot -11.9505 11.3798
rtoes -4.71501
lfemur -1.87711 -4.67812 -17.6136
ltibia 28.9957
lfoot -12.8677 -7.09243
ltoes -15.7026
117
root -20.8212 19.3137 -1.40336 1252.1 241.992 -170.061
lowerback -6.54632 3.44838 -0.0170819
upperback 6.54028 5.03335 -5.04527
thorax 11.2042 2.63442 -4.64147
lowerneck 0.408962 -10.521 6.38423
upperneck 7.36779 -14.6606 5.60452
head 2.25588 -7.04377 0.473256
rclavicle -6.55989e-015 -7.31528e-014
rhumerus 36.421 -0.482275 -29.9304
rradius 58.6983
rwrist -24.9079
rhand 5.78464 0.622178
rfingers 7.12502
rthumb 31.1181 -26.7567
lclavicle -6.55989e-015 -7.31528e-014
lhumerus -34.61 24.3471 67.9712
lradius 15.1336
lwrist -48.2304
lhand -12.6418 -6.32153
lfingers 7.12502
lthumb 13.4385 23.225
rfemur -14.2701 -6.2457 11.6253
rtibia 31.1494
rfoot -11.9621 11.4417
rtoes -4.65639
lfemur -1.99778 -4.64867 -17.6419
ltibia 28.987
lfoot -12.9804 -7.13331
ltoes -15.9824
118
root -20.8402 19.3164 -1.40306 1252.07 242.054 -169.953
lowerback -6.59358 3.43705 -0.0538256
upperback 6.52464 5.02446 -5.06242
thorax 11.2127 2.62767 -4.63897
lowerneck 0.439323 -10.5142 6.33309
upperneck 7.32396 -14.6555 5.73162
head 2.25106 -7.04244 0.521905
rclavicle -5.04913e-014 2.3059e-014
rhumerus 36.3265 -0.343655 -29.7111
rradius 58.8695
rwrist -25.1608
rhand 5.461 1.17944
rfingers 7.12502
rthumb 30.8096 -26.2581
lclavicle -5.04913e-014 2.3059e-014
lhumerus -34.8559 25.2934 67.308
lradius 14.834
lwrist -49.3343
lhand -12.6577 -6.18467
lfingers 7.12502
lthumb 13.4231 23.3628
rfemur -14.2801 -6.22753 11.614
rtibia 31.1108
rfoot -11.993 11.4798
rtoes -4.78311
lfemur -2.12762 -4.66495 -17.6717
ltibia 28.9658
lfoot -13.0996 -7.14221
ltoes -16.265
119
root -20.8584 19.3181 -1.40258 1252.06 242.117 -169.89
lowerback -6.63242 3.40908 -0.0828511
upperback 6.52129 4.99199 -5.07631
thorax 11.2282 2.6101 -4.64173
lowerneck 0.40436 -10.4971 6.27803
upperneck 7.33011 -14.6459 5.84007
head 2.27288 -7.03573 0.559951
rclavicle 8.3092e-014 -6.91771e-014
rhumerus 36.287 -0.196837 -29.5092
rradius 58.9745
rwrist -25.3773
rhand 5.18485 1.87543
rfingers 7.12502
rthumb 30.5463 -25.6115
lclavicle 8.3092e-014 -6.91771e-014
lhumerus -35.1057 26.3388 66.5877
lradius 14.5339
lwrist -50.4873
lhand -12.7105 -6.11235
lfingers 7.12502
lthumb 13.3722 23.4385
rfemur -14.2677 -6.19637 11.6163
rtibia 31.0712
rfoot -11.9949 11.5497
rtoes -4.63246
lfemur -2.23409 -4.65989 -17.6752
ltibia 28.9389
lfoot -13.1857 -7.17407
ltoes -16.4519
